# xmcd CD database file
#
# Track frame offsets:
#	150
#	19555
#	38855
#	60080
#	83105
#	107255
#	126605
#	157030
#	179692
#	202092
#	220342
#
# Disc length: 3282 seconds
#
# Revision: 0
# Processed by: cddbd v1.5.1PL0 Copyright (c) Steve Scherf et al.
# Submitted via: CDex 1.51
#
DISCID=950cd00b
DTITLE=Various Artist - KoKoRo-Dozen Hearts
DYEAR=2002
DGENRE=Easy Listening
TTITLE0=届かぬ想い
TTITLE1=スパニッシュ・アイズ
TTITLE2=ハウ・ディド・アイ・フォール・イン・ラヴ・ウィズ・ユー
TTITLE3=オール・アイ・ハフ・トゥ・ギヴ
TTITLE4=アイ・ニード・ユー・トゥナイト
TTITLE5=シェイプ・オブ・マイ・ハート
TTITLE6=ラージャー・ザン・ライフ
TTITLE7=アイ・ウォント・イット・ザット・ウェイ
TTITLE8=君が僕を愛するかぎり
TTITLE9=ショウ・ミー・ザ・ミーニング・オブ・ビーイング・ロンリー
TTITLE10=ザ・パーフェクト・ファン
EXTD=YEAR: 2002
EXTT0=
EXTT1=
EXTT2=
EXTT3=
EXTT4=
EXTT5=
EXTT6=
EXTT7=
EXTT8=
EXTT9=
EXTT10=
PLAYORDER=
